<?xml version="1.0"?>
<svg xmlns="http://www.w3.org/2000/svg" height="512px" viewBox="0 -16 512 512" width="512px" class=""><g><path d="m497 0h-91c-62.601562 0-119.039062 34.976562-147.070312 90.105469-.96875-.0625-1.945313-.105469-2.929688-.105469s-1.960938.042969-2.929688.105469c-28.03125-55.128907-84.46875-90.105469-147.070312-90.105469h-91c-8.285156 0-15 6.714844-15 15v90c0 75.09375 50.730469 138.632812 119.917969 158.53125-35.550781 24.339844-58.917969 65.226562-58.917969 111.46875v90c0 4.820312 2.316406 9.351562 6.230469 12.167969 7.796875 5.621093 14.382812 1.582031 23.015625-1.105469 43.910156-14.636719 85.09375-37.605469 120.753906-67.15625v26.09375c0 8.285156 6.714844 15 15 15s15-6.714844 15-15c0-9.566406 0-65.761719 0-75h30v75c0 8.285156 6.714844 15 15 15s15-6.714844 15-15v-26.09375c35.660156 29.554688 76.84375 52.523438 120.753906 67.160156 5.515625 1.144532 14.214844 7.445313 23.015625 1.105469 3.914063-2.820313 6.230469-7.347656 6.230469-12.167969v-90c0-46.246094-23.367188-87.128906-58.917969-111.46875 69.1875-19.902344 119.917969-83.441406 119.917969-158.535156v-90c0-8.285156-6.714844-15-15-15zm-241 120c8.269531 0 15 6.730469 15 15s-6.730469 15-15 15-15-6.730469-15-15 6.730469-15 15-15zm-45 248.699219c-34.214844 32.992187-75.40625 58.835937-120 75.304687v-69.003906c0-57.898438 47.101562-105 105-105h15v11.460938l-28.414062 56.832031c-2.328126 4.648437-2.078126 10.171875.652343 14.59375 2.734375 4.421875 7.5625 7.113281 12.761719 7.113281h15zm9.269531-38.699219 15-30h41.460938l15 30zm50.730469-60h-30v-60h30zm150 105v69.003906c-44.59375-16.46875-85.78125-42.3125-120-75.304687v-8.699219h15c5.199219 0 10.027344-2.691406 12.761719-7.113281 2.730469-4.421875 2.980469-9.945313.652343-14.59375l-28.414062-56.832031v-11.460938h15c57.898438 0 105 47.101562 105 105zm61-270c0 74.4375-61.011719 135-136 135-14.050781 0-30.90625 0-45 0v-30h45c3.980469 0 7.792969-1.582031 10.605469-4.394531l60-60c5.859375-5.859375 5.859375-15.355469 0-21.210938-5.855469-5.859375-15.355469-5.859375-21.210938 0l-55.609375 55.605469c-16.960937 0-150.542968 0-167.570312 0l-55.609375-55.605469c-5.855469-5.859375-15.351563-5.859375-21.210938 0-5.859375 5.855469-5.859375 15.351563 0 21.210938l60 60c2.8125 2.8125 6.628907 4.394531 10.605469 4.394531h45v30c-14.09375 0-30.949219 0-45 0-74.988281 0-136-60.5625-136-135v-75h76c50.566406 0 96.203125 27.90625 119.429688 72.019531-8.867188 8.222657-14.429688 19.960938-14.429688 32.980469 0 24.8125 20.1875 45 45 45s45-20.1875 45-45c0-13.019531-5.5625-24.757812-14.429688-32.980469 23.226563-44.113281 68.863282-72.019531 119.429688-72.019531h76zm0 0" data-original="#000000" class="active-path" data-old_color="#8D0303" fill="#970000"/></g> </svg>
